{"title":"Raising Arizona.[x264](AC3)(2 ch).mkv","uid":5211525,"size":1477807324,"categoryP":"video","categoryS":"movies","magnet":"?xt=urn:btih:fe9821eb1cdb58211e5fe2d4d069fcf4c24f8263&amp;dn=Raising+Arizona.%5Bx264%5D%28AC3%29%282+ch%29.mkv&amp;tr=udp%3A%2F%2Ftracker.openbittorrent.com%3A80&amp;tr=udp%3A%2F%2Fopen.demonii.com%3A1337&amp;tr=udp%3A%2F%2Ftracker.coppersurfer.tk%3A6969&amp;tr=udp%3A%2F%2Fexodus.desync.com%3A6969","seeders":0,"leechers":1,"uploader":"Zen_Bud","files":-1,"time":1260617727,"description":"General\nComplete name                    : Raising Arizona.mkv\nFormat                           : Matroska\nFile size                        : 1.38 GiB\nDuration                         : 1h 30mn\nOverall bit rate                 : 2 183 Kbps\n\n\nVideo\nID                               : 1\nFormat                           : AVC\n\nCodec ID                         : V_MPEG4/ISO/AVC\nDuration                         : 1h 30mn\nBit rate                         : 1 944 Kbps\nNominal bit rate                 : 1 973 Kbps\nWidth                            : 706 pixels\nHeight                           : 544 pixels\nDisplay aspect ratio             : 16/9\nFrame rate                       : 25.000 fps\nResolution                       : 24 bits\nColorimetry                      : 4:2:0\nScan type                        : Progressive\nBits/(Pixel*Frame)               : 0.202\nStream size                      : 1.23 GiB (89%)\nWriting library                  : x264 core 79\n\n\nAudio\nID                               : 2\nFormat                           : AC-3\nFormat/Info                      : Audio Coding 3\nFormat profile                   : Dolby Digital\nCodec ID                         : A_AC3\nDuration                         : 1h 30mn\nBit rate mode                    : Constant\nBit rate                         : 192 Kbps\nChannel(s)                       : 2 channels\nChannel positions                : L R\nSampling rate                    : 48.0 KHz\nStream size                      : 124 MiB (9%)\nLanguage                         : English\n\nText #1\nLanguage                         : Danish\n\nText #2\nLanguage                         : English\n\nText #3\nLanguage                         : Norwegian\n\nText #4\nLanguage                         : Swedish\n","torrent":{"xt":"urn:btih:fe9821eb1cdb58211e5fe2d4d069fcf4c24f8263","amp;dn":"Raising+Arizona.%5Bx264%5D%28AC3%29%282+ch%29.mkv","amp;tr":["udp%3A%2F%2Ftracker.openbittorrent.com%3A80","udp%3A%2F%2Fopen.demonii.com%3A1337","udp%3A%2F%2Ftracker.coppersurfer.tk%3A6969","udp%3A%2F%2Fexodus.desync.com%3A6969"],"infoHash":"fe9821eb1cdb58211e5fe2d4d069fcf4c24f8263","infoHashBuffer":{"type":"Buffer","data":[254,152,33,235,28,219,88,33,30,95,226,212,208,105,252,244,194,79,130,99]},"announce":[],"urlList":[]}}